<svg width="1000" height="245" viewBox="0 0 1000 245" fill="none" xmlns="http://www.w3.org/2000/svg">
<path d="M131.749 113.555C131.749 103.878 129.118 95.9952 123.87 89.9324C118.623 83.8695 112.217 79.522 104.655 76.9031C97.0919 74.2973 89.5687 72.0974 82.0849 70.3296C74.6011 68.5618 68.2353 66.1393 62.9874 63.0751C57.7396 59.9978 55.1091 55.8599 55.1091 50.622C55.1091 40.1724 63.3689 34.9476 79.8884 34.9476C93.0015 34.9476 99.5646 39.9367 99.5646 49.928C99.5646 55.3099 97.868 59.7621 94.4746 63.2977H135.458L137.312 60.5347C138.549 58.8455 139.746 55.9647 140.903 51.8922C142.06 47.8197 142.639 43.5509 142.639 39.0987C142.639 26.9598 137.97 17.4662 128.632 10.6307C119.293 3.79529 105.51 0.377563 87.3065 0.377563C37.4452 0.377563 12.5212 19.6661 12.5212 58.2431C12.5212 67.3178 15.1385 74.8865 20.3995 80.9494C25.6474 87.0253 32.0132 91.4775 39.497 94.3191C46.9808 97.1606 54.4646 99.6617 61.9615 101.809C69.4453 103.957 75.8112 106.654 81.059 109.876C86.3069 113.097 88.9374 117.248 88.9374 122.329C88.9374 131.862 81.2563 136.628 65.8941 136.628C50.532 136.628 42.8509 131.325 42.8509 120.718C42.8509 119.487 43.0087 118.112 43.3112 116.567L43.7716 113.804H2.07807L1.38098 117.497C0.460307 122.564 -0.0131836 127.252 -0.0131836 131.56C-0.0131836 142.94 3.30125 151.844 9.94328 158.3C18.887 166.903 35.5644 171.211 59.9492 171.211C84.334 171.211 102.392 166.484 114.124 157.03C125.857 147.575 131.723 133.093 131.723 113.581L131.749 113.555Z" fill="white"/>
<path d="M287.79 37.9463L294.275 1.98816H178.046L158.619 111.578L165.656 128.444L173.561 147.431C176.98 155.615 183.412 162.006 191.645 165.423L197.788 167.964H264.879L271.363 132.006H196.801L201.668 105.031L275.388 104.965L281.872 69.0069L208.152 69.0724L213.768 37.9463H287.804H287.79Z" fill="white"/>
<path d="M392.682 86.8157L363.97 1.98816H320.908L288.75 167.964H330.654L349.16 77.1387L378.332 167.964H420.236L449.409 1.98816H407.728L392.682 86.8157Z" fill="white"/>
<path d="M582.894 10.6307C573.555 3.79529 559.772 0.377563 541.568 0.377563C491.707 0.377563 466.783 19.6661 466.783 58.2431C466.783 67.3178 469.401 74.8865 474.662 80.9494C479.909 87.0253 486.275 91.4775 493.759 94.3191C501.243 97.1606 508.727 99.6617 516.224 101.809C523.707 103.957 530.073 106.654 535.321 109.876C540.569 113.097 543.199 117.248 543.199 122.329C543.199 131.862 535.518 136.628 520.156 136.628C504.794 136.628 497.113 131.325 497.113 120.718C497.113 119.487 497.271 118.112 497.573 116.567L498.034 113.804H456.353L455.656 117.497C454.735 122.564 454.262 127.252 454.262 131.56C454.262 142.94 457.576 151.844 464.218 158.3C473.162 166.903 489.84 171.211 514.224 171.211C538.609 171.211 556.668 166.484 568.4 157.03C580.132 147.575 585.998 133.093 585.998 113.581C585.998 103.904 583.367 96.0214 578.119 89.9585C572.871 83.8957 566.466 79.5482 558.903 76.9293C551.341 74.3234 543.818 72.1235 536.334 70.3558C528.85 68.588 522.484 66.1654 517.236 63.1013C511.988 60.024 509.358 55.8861 509.358 50.6482C509.358 40.1986 517.618 34.9738 534.137 34.9738C547.25 34.9738 553.813 39.9629 553.813 49.9542C553.813 55.3361 552.117 59.7883 548.723 63.3239H589.707L591.561 60.5609C592.798 58.8717 593.994 55.9908 595.152 51.9184C596.309 47.8459 596.888 43.577 596.888 39.1248C596.888 26.986 592.219 17.4924 582.881 10.6569L582.894 10.6307Z" fill="white"/>
<path d="M686.496 37.9463H743.684L720.772 167.964H762.676L785.601 37.9463H842.551L849.035 1.98816H692.981L686.496 37.9463Z" fill="white"/>
<path d="M605.503 167.964H647.407L665.742 53.0707H624.061L605.503 167.964Z" fill="white"/>
<path d="M958.32 1.98816L919.191 60.312H913.864L895.806 1.98816H851.587L886.783 104.114L875.432 167.964H917.336L928.687 104.114L1000 1.98816H958.32Z" fill="white"/>
<path d="M164.827 167.964C161.421 163.944 158.633 159.4 156.568 154.463L152.675 145.14L148.65 135.476L140.732 154.463C135.458 167.073 125.383 177.104 112.704 182.355L93.646 190.238L112.717 198.121C125.383 203.372 135.458 213.402 140.732 226.013L148.65 245L156.568 226.013C161.829 213.402 171.904 203.372 184.583 198.121L203.641 190.238L184.583 182.355C176.875 179.16 170.115 174.197 164.827 167.964ZM181.558 190.866C166.945 196.916 155.345 208.466 149.281 223.001L148.65 224.52L148.019 223.014C141.955 208.466 130.342 196.916 115.742 190.866L114.217 190.238L115.742 189.609C130.342 183.56 141.955 172.01 148.019 157.462L148.65 155.956L149.281 157.475C149.557 158.13 149.847 158.784 150.149 159.426C151.517 162.412 153.135 165.266 154.963 167.964C161.46 177.549 170.68 185.105 181.558 189.609L183.083 190.238L181.558 190.866Z" fill="#E81C5A"/>
<path d="M159.83 187.776C155.884 186.139 152.74 183.023 151.109 179.094L150.333 177.222L148.637 173.189L146.953 177.235L146.177 179.094C144.533 183.023 141.39 186.139 137.444 187.776L135.589 188.549L131.512 190.238L135.576 191.914L137.444 192.687C141.39 194.323 144.533 197.44 146.177 201.368L146.953 203.228L148.637 207.274L150.333 203.241L151.109 201.368C152.74 197.44 155.884 194.323 159.83 192.687L161.697 191.914L165.761 190.238L161.71 188.549L159.83 187.776Z" fill="#E81C5A"/>
<path d="M633.599 1.84082H675.282L668.87 41.9189H627.121L633.599 1.84082Z" fill="#E81C5A"/>
</svg>
