<svg width="204" height="245" viewBox="0 0 204 245" fill="none" xmlns="http://www.w3.org/2000/svg">
<path d="M131.749 113.178C131.749 103.501 129.118 95.6176 123.87 89.5548C118.623 83.4919 112.217 79.1445 104.655 76.5255C97.0919 73.9197 89.5687 71.7198 82.0849 69.952C74.6011 68.1842 68.2353 65.7617 62.9874 62.6975C57.7396 59.6203 55.1091 55.4823 55.1091 50.2444C55.1091 39.7949 63.3689 34.5701 79.8884 34.5701C93.0015 34.5701 99.5646 39.5592 99.5646 49.5504C99.5646 54.9324 97.868 59.3846 94.4746 62.9201H135.458L137.312 60.1571C138.549 58.4679 139.746 55.5871 140.903 51.5146C142.06 47.4422 142.639 43.1733 142.639 38.7211C142.639 26.5823 137.97 17.0886 128.632 10.2532C119.293 3.41772 105.51 0 87.3065 0C37.4452 0 12.5212 19.2885 12.5212 57.8656C12.5212 66.9402 15.1385 74.509 20.3995 80.5718C25.6474 86.6478 32.0132 91.1 39.497 93.9415C46.9808 96.7831 54.4646 99.2842 61.9615 101.432C69.4453 103.579 75.8112 106.277 81.059 109.498C86.3069 112.719 88.9374 116.87 88.9374 121.951C88.9374 131.484 81.2563 136.251 65.8941 136.251C50.532 136.251 42.8509 130.947 42.8509 120.34C42.8509 119.11 43.0087 117.735 43.3112 116.189L43.7716 113.426H2.07807L1.38098 117.119C0.460307 122.187 -0.0131836 126.875 -0.0131836 131.183C-0.0131836 142.562 3.30125 151.467 9.94328 157.922C18.887 166.526 35.5644 170.834 59.9492 170.834C84.334 170.834 102.392 166.107 114.124 156.652C125.857 147.198 131.723 132.715 131.723 113.204L131.749 113.178Z" fill="white"/>
<path d="M164.827 167.586C161.421 163.566 158.633 159.022 156.568 154.086L152.675 144.762L148.65 135.098L140.732 154.086C135.458 166.696 125.383 176.726 112.704 181.977L93.646 189.86L112.717 197.743C125.383 202.994 135.458 213.025 140.732 225.635L148.65 244.622L156.568 225.635C161.829 213.025 171.904 202.994 184.583 197.743L203.641 189.86L184.583 181.977C176.875 178.782 170.115 173.819 164.827 167.586ZM181.558 190.489C166.945 196.539 155.345 208.088 149.281 222.623L148.65 224.142L148.019 222.636C141.955 208.088 130.342 196.539 115.742 190.489L114.217 189.86L115.742 189.232C130.342 183.182 141.955 171.633 148.019 157.084L148.65 155.578L149.281 157.097C149.557 157.752 149.847 158.407 150.149 159.048C151.517 162.034 153.135 164.889 154.963 167.586C161.46 177.172 170.68 184.727 181.558 189.232L183.083 189.86L181.558 190.489Z" fill="#E81C5A"/>
<path d="M159.83 187.399C155.884 185.762 152.74 182.645 151.109 178.717L150.333 176.844L148.637 172.811L146.953 176.857L146.177 178.717C144.533 182.645 141.39 185.762 137.444 187.399L135.589 188.171L131.512 189.86L135.576 191.536L137.444 192.309C141.39 193.946 144.533 197.062 146.177 200.991L146.953 202.85L148.637 206.897L150.333 202.863L151.109 200.991C152.74 197.062 155.884 193.946 159.83 192.309L161.697 191.536L165.761 189.86L161.71 188.171L159.83 187.399Z" fill="#E81C5A"/>
</svg>
